<?xml version="1.0" encoding="UTF-8" standalone="no"?>
<!DOCTYPE svg PUBLIC "-//W3C//DTD SVG 1.1//EN"
 "http://www.w3.org/Graphics/SVG/1.1/DTD/svg11.dtd">
<!-- Generated by graphviz version 14.1.3 (20260303.0454)
 -->
<!-- Pages: 1 -->
<svg width="289pt" height="452pt"
 viewBox="0.00 0.00 289.00 452.00" xmlns="http://www.w3.org/2000/svg" xmlns:xlink="http://www.w3.org/1999/xlink">
<g id="graph0" class="graph" transform="scale(1 1) rotate(0) translate(4 447.5)">
<polygon fill="white" stroke="none" points="-4,4 -4,-447.5 284.5,-447.5 284.5,4 -4,4"/>
<g id="clust3" class="cluster">
<title>cluster_associated</title>
</g>
<!-- i72_Quantity -->
<g id="node1" class="node">
<title>i72_Quantity</title>
<g id="a_node1"><a xlink:href="https://w3id.org/citydata/21972/v1/Quantity" xlink:title="&lt;TABLE&gt;">
<polygon fill="lightgray" stroke="none" points="77.12,-417.38 77.12,-433.62 142.88,-433.62 142.88,-417.38 77.12,-417.38"/>
<text xml:space="preserve" text-anchor="start" x="78.12" y="-421.38" font-family="Arial" font-size="12.00">i72:Quantity</text>
<polygon fill="none" stroke="black" points="76.12,-416.38 76.12,-434.62 143.88,-434.62 143.88,-416.38 76.12,-416.38"/>
</a>
</g>
</g>
<!-- ITSThing -->
<g id="node2" class="node">
<title>ITSThing</title>
<g id="a_node2"><a xlink:href="../ITSThing" xlink:title="&lt;TABLE&gt;">
<polygon fill="lightgray" stroke="none" points="163.25,-417.38 163.25,-433.62 214.75,-433.62 214.75,-417.38 163.25,-417.38"/>
<text xml:space="preserve" text-anchor="start" x="164.25" y="-421.38" font-family="Arial" font-size="12.00">ITSThing</text>
<polygon fill="none" stroke="black" points="162.25,-416.38 162.25,-434.62 215.75,-434.62 215.75,-416.38 162.25,-416.38"/>
</a>
</g>
</g>
<!-- Angle -->
<g id="node3" class="node">
<title>Angle</title>
<g id="a_node3"><a xlink:href="../Angle" xlink:title="&lt;TABLE&gt;">
<polygon fill="lightgray" stroke="none" points="132.25,-344.38 132.25,-360.62 165.75,-360.62 165.75,-344.38 132.25,-344.38"/>
<text xml:space="preserve" text-anchor="start" x="133.25" y="-348.38" font-family="Arial" font-size="12.00">Angle</text>
<polygon fill="none" stroke="black" points="131.25,-343.38 131.25,-361.62 166.75,-361.62 166.75,-343.38 131.25,-343.38"/>
</a>
</g>
</g>
<!-- Angle&#45;&gt;i72_Quantity -->
<g id="edge1" class="edge">
<title>Angle&#45;&gt;i72_Quantity</title>
<path fill="none" stroke="black" d="M139.82,-370.21C135.32,-378.41 129.78,-388.5 124.7,-397.74"/>
<polygon fill="none" stroke="black" points="121.72,-395.9 119.97,-406.35 127.85,-399.27 121.72,-395.9"/>
</g>
<!-- Angle&#45;&gt;ITSThing -->
<g id="edge2" class="edge">
<title>Angle&#45;&gt;ITSThing</title>
<path fill="none" stroke="black" d="M158.41,-370.21C163.03,-378.41 168.72,-388.5 173.92,-397.74"/>
<polygon fill="none" stroke="black" points="170.82,-399.36 178.78,-406.36 176.92,-395.92 170.82,-399.36"/>
</g>
<!-- Invis -->
<!-- Angle&#45;&gt;Invis -->
<!-- AngleUnit -->
<g id="node5" class="node">
<title>AngleUnit</title>
<g id="a_node5"><a xlink:href="../AngleUnit" xlink:title="&lt;TABLE&gt;">
<polygon fill="lightgray" stroke="none" points="88.38,-187.88 88.38,-204.12 143.62,-204.12 143.62,-187.88 88.38,-187.88"/>
<text xml:space="preserve" text-anchor="start" x="89.38" y="-191.88" font-family="Arial" font-size="12.00">AngleUnit</text>
<polygon fill="none" stroke="black" points="87.38,-186.88 87.38,-205.12 144.62,-205.12 144.62,-186.88 87.38,-186.88"/>
</a>
</g>
</g>
<!-- Angle&#45;&gt;AngleUnit -->
<g id="edge11" class="edge">
<title>Angle&#45;&gt;AngleUnit</title>
<path fill="none" stroke="black" d="M148.39,-334.8C147.37,-315.29 144.75,-282.16 138,-254.5 135.57,-244.53 131.87,-233.96 128.19,-224.63"/>
<polygon fill="black" stroke="black" points="131.43,-223.31 124.38,-215.4 124.96,-225.98 131.43,-223.31"/>
<polygon fill="white" stroke="none" points="145.74,-254.5 145.74,-297.5 207.74,-297.5 207.74,-254.5 145.74,-254.5"/>
<text xml:space="preserve" text-anchor="start" x="149.74" y="-283" font-family="Arial" font-size="11.00">i72:hasUnit</text>
<text xml:space="preserve" text-anchor="start" x="173.74" y="-261.5" font-family="Arial" font-size="11.00">1</text>
</g>
<!-- owl_Thing -->
<g id="node7" class="node">
<title>owl_Thing</title>
<g id="a_node7"><a xlink:href="https://w3id.org/citydata/imported/owl/latest/Thing" xlink:title="&lt;TABLE&gt;">
<polygon fill="lightgray" stroke="none" points="78.75,-25.88 78.75,-42.12 133.25,-42.12 133.25,-25.88 78.75,-25.88"/>
<text xml:space="preserve" text-anchor="start" x="79.75" y="-29.88" font-family="Arial" font-size="12.00">owl:Thing</text>
<polygon fill="none" stroke="black" points="77.75,-24.88 77.75,-43.12 134.25,-43.12 134.25,-24.88 77.75,-24.88"/>
</a>
</g>
</g>
<!-- Angle&#45;&gt;owl_Thing -->
<g id="edge10" class="edge">
<title>Angle&#45;&gt;owl_Thing</title>
<path fill="none" stroke="black" d="M122.02,-349.93C79.08,-345.83 0,-330.94 0,-277 0,-277 0,-277 0,-106 0,-72.56 36.86,-53.87 67.11,-44.16"/>
<polygon fill="black" stroke="black" points="67.82,-47.6 76.42,-41.41 65.84,-40.89 67.82,-47.6"/>
<polygon fill="white" stroke="none" points="0,-174.5 0,-217.5 69.5,-217.5 69.5,-174.5 0,-174.5"/>
<text xml:space="preserve" text-anchor="start" x="4" y="-203" font-family="Arial" font-size="11.00">i72:hasValue</text>
<text xml:space="preserve" text-anchor="start" x="31.75" y="-181.5" font-family="Arial" font-size="11.00">1</text>
</g>
<!-- n6ad4303373fc4c16bb8b5dce467ff00cb2 -->
<g id="node8" class="node">
<title>n6ad4303373fc4c16bb8b5dce467ff00cb2</title>
<polygon fill="lightyellow" stroke="none" points="189.5,-186.88 189.5,-205.12 280.5,-205.12 280.5,-186.88 189.5,-186.88"/>
<text xml:space="preserve" text-anchor="start" x="191.5" y="-191.88" font-family="Arial" font-size="12.00">«intersectionOf»</text>
<polygon fill="none" stroke="black" points="189.5,-186.88 189.5,-205.12 280.5,-205.12 280.5,-186.88 189.5,-186.88"/>
</g>
<!-- Angle&#45;&gt;n6ad4303373fc4c16bb8b5dce467ff00cb2 -->
<g id="edge9" class="edge">
<title>Angle&#45;&gt;n6ad4303373fc4c16bb8b5dce467ff00cb2</title>
<path fill="none" stroke="black" stroke-dasharray="5,2" d="M158.37,-334.67C173.23,-307.97 202.35,-255.67 220.1,-223.77"/>
<polygon fill="black" stroke="black" points="223.1,-225.57 224.91,-215.13 216.99,-222.17 223.1,-225.57"/>
<polygon fill="white" stroke="none" points="202.65,-254.5 202.65,-297.5 254.9,-297.5 254.9,-254.5 202.65,-254.5"/>
<text xml:space="preserve" text-anchor="start" x="206.65" y="-283" font-family="Arial" font-size="11.00">redefines</text>
<text xml:space="preserve" text-anchor="start" x="207.4" y="-261.5" font-family="Arial" font-size="11.00">i72:value</text>
</g>
<!-- Invis&#45;&gt;AngleUnit -->
<!-- i72_Measure -->
<g id="node6" class="node">
<title>i72_Measure</title>
<g id="a_node6"><a xlink:href="https://w3id.org/citydata/21972/v1/Measure" xlink:title="&lt;TABLE&gt;">
<polygon fill="lightgray" stroke="none" points="76,-98.88 76,-115.12 144,-115.12 144,-98.88 76,-98.88"/>
<text xml:space="preserve" text-anchor="start" x="77" y="-102.88" font-family="Arial" font-size="12.00">i72:Measure</text>
<polygon fill="none" stroke="black" points="75,-97.88 75,-116.12 145,-116.12 145,-97.88 75,-97.88"/>
</a>
</g>
</g>
<!-- AngleUnit&#45;&gt;i72_Measure -->
<!-- i72_Measure&#45;&gt;owl_Thing -->
<!-- n6ad4303373fc4c16bb8b5dce467ff00cb2&#45;&gt;i72_Measure -->
<g id="edge7" class="edge">
<title>n6ad4303373fc4c16bb8b5dce467ff00cb2&#45;&gt;i72_Measure</title>
<path fill="none" stroke="black" stroke-dasharray="1,5" d="M210.6,-178.02C191.5,-164.73 164.72,-146.09 143.6,-131.38"/>
<polygon fill="black" stroke="black" points="145.79,-128.64 135.58,-125.8 141.79,-134.39 145.79,-128.64"/>
<text xml:space="preserve" text-anchor="middle" x="196.12" y="-146.05" font-family="Arial" font-size="11.00">member</text>
</g>
<!-- n6ad4303373fc4c16bb8b5dce467ff00cb3 -->
<g id="node9" class="node">
<title>n6ad4303373fc4c16bb8b5dce467ff00cb3</title>
<polygon fill="lightyellow" stroke="none" points="196.62,-97.88 196.62,-116.12 273.38,-116.12 273.38,-97.88 196.62,-97.88"/>
<text xml:space="preserve" text-anchor="start" x="198.62" y="-102.88" font-family="Arial" font-size="12.00">ComplexExpr</text>
<polygon fill="none" stroke="black" points="196.62,-97.88 196.62,-116.12 273.38,-116.12 273.38,-97.88 196.62,-97.88"/>
</g>
<!-- n6ad4303373fc4c16bb8b5dce467ff00cb2&#45;&gt;n6ad4303373fc4c16bb8b5dce467ff00cb3 -->
<g id="edge8" class="edge">
<title>n6ad4303373fc4c16bb8b5dce467ff00cb2&#45;&gt;n6ad4303373fc4c16bb8b5dce467ff00cb3</title>
<path fill="none" stroke="black" stroke-dasharray="1,5" d="M235,-178.23C235,-166.31 235,-150.03 235,-136.14"/>
<polygon fill="black" stroke="black" points="238.5,-136.24 235,-126.24 231.5,-136.24 238.5,-136.24"/>
<text xml:space="preserve" text-anchor="middle" x="254.88" y="-146.05" font-family="Arial" font-size="11.00">member</text>
</g>
</g>
</svg>
