<?xml version="1.0" encoding="UTF-8" standalone="no"?>
<!DOCTYPE svg PUBLIC "-//W3C//DTD SVG 1.1//EN"
 "http://www.w3.org/Graphics/SVG/1.1/DTD/svg11.dtd">
<!-- Generated by graphviz version 14.1.3 (20260303.0454)
 -->
<!-- Pages: 1 -->
<svg width="265pt" height="159pt"
 viewBox="0.00 0.00 265.00 159.00" xmlns="http://www.w3.org/2000/svg" xmlns:xlink="http://www.w3.org/1999/xlink">
<g id="graph0" class="graph" transform="scale(1 1) rotate(0) translate(4 155)">
<polygon fill="white" stroke="none" points="-4,4 -4,-155 260.5,-155 260.5,4 -4,4"/>
<g id="clust3" class="cluster">
<title>cluster_associated</title>
</g>
<!-- i72_Unit_of_measure -->
<g id="node1" class="node">
<title>i72_Unit_of_measure</title>
<g id="a_node1"><a xlink:href="https://w3id.org/citydata/21972/v1/Unit_of_measure" xlink:title="&lt;TABLE&gt;">
<polygon fill="lightgray" stroke="none" points="1,-124.88 1,-141.12 114,-141.12 114,-124.88 1,-124.88"/>
<text xml:space="preserve" text-anchor="start" x="2" y="-128.88" font-family="Arial" font-size="12.00">i72:Unit_of_measure</text>
<polygon fill="none" stroke="black" points="0,-123.88 0,-142.12 115,-142.12 115,-123.88 0,-123.88"/>
</a>
</g>
</g>
<!-- ITSThing -->
<g id="node2" class="node">
<title>ITSThing</title>
<g id="a_node2"><a xlink:href="../ITSThing" xlink:title="&lt;TABLE&gt;">
<polygon fill="lightgray" stroke="none" points="134.75,-124.88 134.75,-141.12 186.25,-141.12 186.25,-124.88 134.75,-124.88"/>
<text xml:space="preserve" text-anchor="start" x="135.75" y="-128.88" font-family="Arial" font-size="12.00">ITSThing</text>
<polygon fill="none" stroke="black" points="133.75,-123.88 133.75,-142.12 187.25,-142.12 187.25,-123.88 133.75,-123.88"/>
</a>
</g>
</g>
<!-- AngleUnit -->
<g id="node3" class="node">
<title>AngleUnit</title>
<g id="a_node3"><a xlink:href="../AngleUnit" xlink:title="&lt;TABLE&gt;">
<polygon fill="lightgray" stroke="none" points="80.88,-13.38 80.88,-29.62 136.12,-29.62 136.12,-13.38 80.88,-13.38"/>
<text xml:space="preserve" text-anchor="start" x="81.88" y="-17.38" font-family="Arial" font-size="12.00">AngleUnit</text>
<polygon fill="none" stroke="black" points="79.88,-12.38 79.88,-30.62 137.12,-30.62 137.12,-12.38 79.88,-12.38"/>
</a>
</g>
</g>
<!-- AngleUnit&#45;&gt;i72_Unit_of_measure -->
<g id="edge1" class="edge">
<title>AngleUnit&#45;&gt;i72_Unit_of_measure</title>
<path fill="none" stroke="black" d="M100.68,-39.29C92.53,-56.79 79.62,-84.5 70.04,-105.07"/>
<polygon fill="none" stroke="black" points="66.93,-103.45 65.88,-114 73.28,-106.41 66.93,-103.45"/>
</g>
<!-- AngleUnit&#45;&gt;ITSThing -->
<g id="edge2" class="edge">
<title>AngleUnit&#45;&gt;ITSThing</title>
<path fill="none" stroke="black" d="M116.47,-39.29C124.79,-56.79 137.94,-84.5 147.71,-105.07"/>
<polygon fill="none" stroke="black" points="144.5,-106.47 151.95,-114 150.82,-103.47 144.5,-106.47"/>
</g>
<!-- AngleUnit&#45;&gt;AngleUnit -->
<g id="edge3" class="edge">
<title>AngleUnit&#45;&gt;AngleUnit</title>
<path fill="none" stroke="black" d="M136.72,-32.27C146.86,-32.5 155.12,-28.91 155.12,-21.5 155.12,-17.21 152.36,-14.21 148.07,-12.48"/>
<polygon fill="black" stroke="black" points="148.64,-9.02 138.22,-10.96 147.57,-15.94 148.64,-9.02"/>
<polygon fill="white" stroke="none" points="155.12,0 155.12,-43 217.12,-43 217.12,0 155.12,0"/>
<text xml:space="preserve" text-anchor="start" x="159.12" y="-28.5" font-family="Arial" font-size="11.00">i72:hasUnit</text>
<text xml:space="preserve" text-anchor="start" x="183.12" y="-7" font-family="Arial" font-size="11.00">1</text>
</g>
<!-- Invis -->
</g>
</svg>
