<?xml version="1.0" encoding="UTF-8" standalone="no"?>
<!DOCTYPE svg PUBLIC "-//W3C//DTD SVG 1.1//EN"
 "http://www.w3.org/Graphics/SVG/1.1/DTD/svg11.dtd">
<!-- Generated by graphviz version 14.1.3 (20260303.0454)
 -->
<!-- Pages: 1 -->
<svg width="242pt" height="132pt"
 viewBox="0.00 0.00 242.00 132.00" xmlns="http://www.w3.org/2000/svg" xmlns:xlink="http://www.w3.org/1999/xlink">
<g id="graph0" class="graph" transform="scale(1 1) rotate(0) translate(4 128)">
<polygon fill="white" stroke="none" points="-4,4 -4,-128 237.5,-128 237.5,4 -4,4"/>
<g id="clust3" class="cluster">
<title>cluster_associated</title>
</g>
<!-- Code -->
<g id="node1" class="node">
<title>Code</title>
<g id="a_node1"><a xlink:href="../Code" xlink:title="&lt;TABLE&gt;">
<polygon fill="lightgray" stroke="none" points="20.88,-97.88 20.88,-114.12 52.12,-114.12 52.12,-97.88 20.88,-97.88"/>
<text xml:space="preserve" text-anchor="start" x="21.88" y="-101.88" font-family="Arial" font-size="12.00">Code</text>
<polygon fill="none" stroke="black" points="19.88,-96.88 19.88,-115.12 53.12,-115.12 53.12,-96.88 19.88,-96.88"/>
</a>
</g>
</g>
<!-- ITSThing -->
<g id="node2" class="node">
<title>ITSThing</title>
<g id="a_node2"><a xlink:href="../ITSThing" xlink:title="&lt;TABLE&gt;">
<polygon fill="lightgray" stroke="none" points="82.75,-97.88 82.75,-114.12 134.25,-114.12 134.25,-97.88 82.75,-97.88"/>
<text xml:space="preserve" text-anchor="start" x="83.75" y="-101.88" font-family="Arial" font-size="12.00">ITSThing</text>
<polygon fill="none" stroke="black" points="81.75,-96.88 81.75,-115.12 135.25,-115.12 135.25,-96.88 81.75,-96.88"/>
</a>
</g>
</g>
<!-- ComparisonOperatorCode -->
<g id="node3" class="node">
<title>ComparisonOperatorCode</title>
<g id="a_node3"><a xlink:href="../ComparisonOperatorCode" xlink:title="&lt;TABLE&gt;">
<polygon fill="lightgray" stroke="none" points="1,-25.88 1,-42.12 144,-42.12 144,-25.88 1,-25.88"/>
<text xml:space="preserve" text-anchor="start" x="2" y="-29.88" font-family="Arial" font-size="12.00">ComparisonOperatorCode</text>
<polygon fill="none" stroke="black" points="0,-24.88 0,-43.12 145,-43.12 145,-24.88 0,-24.88"/>
</a>
</g>
</g>
<!-- ComparisonOperatorCode&#45;&gt;Code -->
<g id="edge1" class="edge">
<title>ComparisonOperatorCode&#45;&gt;Code</title>
<path fill="none" stroke="black" d="M63.87,-51.79C59.85,-59.59 54.98,-69.07 50.46,-77.85"/>
<polygon fill="none" stroke="black" points="47.37,-76.22 45.91,-86.71 53.59,-79.42 47.37,-76.22"/>
</g>
<!-- ComparisonOperatorCode&#45;&gt;ITSThing -->
<g id="edge2" class="edge">
<title>ComparisonOperatorCode&#45;&gt;ITSThing</title>
<path fill="none" stroke="black" d="M81.13,-51.79C85.15,-59.59 90.02,-69.07 94.54,-77.85"/>
<polygon fill="none" stroke="black" points="91.41,-79.42 99.09,-86.71 97.63,-76.22 91.41,-79.42"/>
</g>
<!-- Invis -->
</g>
</svg>
