<?xml version="1.0" encoding="UTF-8" standalone="no"?>
<!DOCTYPE svg PUBLIC "-//W3C//DTD SVG 1.1//EN"
 "http://www.w3.org/Graphics/SVG/1.1/DTD/svg11.dtd">
<!-- Generated by graphviz version 14.1.3 (20260303.0454)
 -->
<!-- Pages: 1 -->
<svg width="245pt" height="132pt"
 viewBox="0.00 0.00 245.00 132.00" xmlns="http://www.w3.org/2000/svg" xmlns:xlink="http://www.w3.org/1999/xlink">
<g id="graph0" class="graph" transform="scale(1 1) rotate(0) translate(4 128)">
<polygon fill="white" stroke="none" points="-4,4 -4,-128 240.5,-128 240.5,4 -4,4"/>
<g id="clust3" class="cluster">
<title>cluster_associated</title>
</g>
<!-- i72_Unit_of_measure -->
<g id="node1" class="node">
<title>i72_Unit_of_measure</title>
<g id="a_node1"><a xlink:href="https://w3id.org/itsdata/i72/v1/Unit_of_measure" xlink:title="&lt;TABLE&gt;">
<polygon fill="lightgray" stroke="none" points="1,-97.88 1,-114.12 114,-114.12 114,-97.88 1,-97.88"/>
<text xml:space="preserve" text-anchor="start" x="2" y="-101.88" font-family="Arial" font-size="12.00">i72:Unit_of_measure</text>
<polygon fill="none" stroke="black" points="0,-96.88 0,-115.12 115,-115.12 115,-96.88 0,-96.88"/>
</a>
</g>
</g>
<!-- ITSThing -->
<g id="node2" class="node">
<title>ITSThing</title>
<g id="a_node2"><a xlink:href="../ITSThing" xlink:title="&lt;TABLE&gt;">
<polygon fill="lightgray" stroke="none" points="134.75,-97.88 134.75,-114.12 186.25,-114.12 186.25,-97.88 134.75,-97.88"/>
<text xml:space="preserve" text-anchor="start" x="135.75" y="-101.88" font-family="Arial" font-size="12.00">ITSThing</text>
<polygon fill="none" stroke="black" points="133.75,-96.88 133.75,-115.12 187.25,-115.12 187.25,-96.88 133.75,-96.88"/>
</a>
</g>
</g>
<!-- AngleUnit -->
<g id="node3" class="node">
<title>AngleUnit</title>
<g id="a_node3"><a xlink:href="../AngleUnit" xlink:title="&lt;TABLE&gt;">
<polygon fill="lightgray" stroke="none" points="69.25,-34 69.25,-50.25 147.75,-50.25 147.75,-34 69.25,-34"/>
<text xml:space="preserve" text-anchor="start" x="81.88" y="-38" font-family="Arial" font-size="12.00">AngleUnit</text>
<text xml:space="preserve" text-anchor="start" x="70.25" y="-21.75" font-family="Arial" font-size="12.00">i72:hasUnit [1]</text>
<polygon fill="none" stroke="black" points="68.25,-16.75 68.25,-51.25 148.75,-51.25 148.75,-16.75 68.25,-16.75"/>
</a>
</g>
</g>
<!-- AngleUnit&#45;&gt;i72_Unit_of_measure -->
<g id="edge1" class="edge">
<title>AngleUnit&#45;&gt;i72_Unit_of_measure</title>
<path fill="none" stroke="black" d="M96.27,-51.79C90.33,-59.93 83.07,-69.9 76.44,-79"/>
<polygon fill="none" stroke="black" points="73.8,-76.69 70.74,-86.83 79.45,-80.81 73.8,-76.69"/>
</g>
<!-- AngleUnit&#45;&gt;ITSThing -->
<g id="edge2" class="edge">
<title>AngleUnit&#45;&gt;ITSThing</title>
<path fill="none" stroke="black" d="M120.97,-51.79C127.02,-59.93 134.43,-69.9 141.19,-79"/>
<polygon fill="none" stroke="black" points="138.24,-80.9 147.01,-86.84 143.86,-76.73 138.24,-80.9"/>
</g>
<!-- Invis -->
</g>
</svg>
